<svg xmlns="http://www.w3.org/2000/svg" viewBox="0 0 15 17.84"><path d="M14.5,15c-.17,0-.33-.08-.42-.23-1.44-2.26-3.9-3.61-6.58-3.61s-5.14,1.35-6.58,3.61c-.12,.19-.35,.28-.56,.21C.15,14.92,0,14.72,0,14.5V7.79C0,3.62,3.26,.12,7.27,0c2.05-.05,3.99,.69,5.45,2.11,1.47,1.43,2.28,3.34,2.28,5.38v7c0,.22-.15,.42-.36,.48-.05,.01-.09,.02-.14,.02Zm-7-4.84c2.51,0,4.85,1.05,6.5,2.87V7.5c0-1.77-.7-3.43-1.97-4.67-1.27-1.23-2.96-1.9-4.73-1.83-3.47,.1-6.3,3.15-6.3,6.79v5.23c1.65-1.82,3.99-2.87,6.5-2.87Z"/><path d="M14.5,17.84c-.17,0-.33-.08-.42-.23-.28-.44-.59-.84-.94-1.21-1.47-1.55-3.47-2.4-5.64-2.4s-4.17,.85-5.64,2.4c-.35,.37-.66,.77-.94,1.21-.15,.23-.46,.3-.69,.15-.23-.15-.3-.46-.15-.69,.31-.49,.67-.95,1.06-1.36,1.64-1.73,3.96-2.72,6.36-2.72s4.73,.99,6.36,2.71c.39,.41,.75,.87,1.06,1.36,.15,.23,.08,.54-.15,.69-.08,.05-.18,.08-.27,.08Z"/></svg>