<svg xmlns="http://www.w3.org/2000/svg" viewBox="0 0 17 9"><path d="M16.5,9H.5c-.28,0-.5-.22-.5-.5V.5C0,.22,.22,0,.5,0H16.5c.28,0,.5,.22,.5,.5V8.5c0,.28-.22,.5-.5,.5ZM1,8h15V1H1v7Z"/><g><path d="M5.53,6.08c.26-.04,.36-.07,.36-.2,0-.14-.14-.55-.31-1.04h-1.07c-.05,.1-.28,.82-.28,.98,0,.18,.12,.21,.38,.26v.07h-1.05v-.07c.32-.07,.38-.12,.56-.6l1-2.7,.06-.03,.31,.98c.21,.66,.42,1.32,.6,1.83,.14,.39,.18,.45,.5,.51v.07h-1.06v-.07Zm-.45-2.83c-.19,.47-.37,.97-.51,1.42h.97l-.45-1.42h0Z"/><path d="M6.82,6.08c.42-.02,.46-.11,.46-.53V3.45c0-.41-.04-.5-.42-.52v-.08h1.35c.56,0,1.01,.11,1.29,.42,.25,.27,.37,.64,.37,1.1,0,1.4-1.06,1.8-1.99,1.8h-1.06v-.07Zm.7-.55c0,.41,.07,.49,.54,.49,1.13,0,1.51-.84,1.51-1.55,0-.6-.21-1.15-.65-1.38-.21-.09-.5-.15-.95-.15-.24,0-.37,0-.41,.01-.02,0-.04,0-.04,.1v2.48Z"/><path d="M10.24,6.08c.42-.02,.46-.11,.46-.53V3.45c0-.41-.04-.5-.42-.52v-.08h1.35c.56,0,1.01,.11,1.29,.42,.25,.27,.37,.64,.37,1.1,0,1.4-1.06,1.8-1.99,1.8h-1.06v-.07Zm.7-.55c0,.41,.07,.49,.54,.49,1.13,0,1.51-.84,1.51-1.55,0-.6-.21-1.15-.65-1.38-.21-.09-.5-.15-.95-.15-.24,0-.37,0-.41,.01-.02,0-.04,0-.04,.1v2.48Z"/></g></svg>