<svg xmlns="http://www.w3.org/2000/svg" viewBox="0 0 15 17"><path d="M14.5,17c-.17,0-.33-.08-.42-.23-1.44-2.26-3.9-3.61-6.58-3.61s-5.14,1.35-6.58,3.61c-.12,.19-.35,.28-.56,.21-.21-.06-.36-.26-.36-.48v-6.71C0,5.62,3.26,2.12,7.27,2c2.05-.05,3.99,.69,5.45,2.11,1.47,1.43,2.28,3.34,2.28,5.38v7c0,.22-.15,.42-.36,.48-.05,.01-.09,.02-.14,.02Zm-7-4.84c2.51,0,4.85,1.05,6.5,2.87v-5.52c0-1.77-.7-3.43-1.97-4.67-1.27-1.23-2.96-1.9-4.73-1.83-3.47,.1-6.3,3.15-6.3,6.79v5.23c1.65-1.82,3.99-2.87,6.5-2.87Z"/><path d="M7.5,3c-.83,0-1.5-.67-1.5-1.5s.67-1.5,1.5-1.5,1.5,.67,1.5,1.5-.67,1.5-1.5,1.5Zm0-2c-.28,0-.5,.22-.5,.5s.22,.5,.5,.5,.5-.22,.5-.5-.22-.5-.5-.5Z"/></svg>