<svg xmlns="http://www.w3.org/2000/svg" viewBox="0 0 15 15"><path d="M14.5,15H.5c-.28,0-.5-.22-.5-.5V.5C0,.22,.22,0,.5,0H14.5c.28,0,.5,.22,.5,.5V14.5c0,.28-.22,.5-.5,.5ZM1,14H14V1H1V14Z"/><path d="M7.5,6c-.28,0-.5-.22-.5-.5V.5c0-.28,.22-.5,.5-.5s.5,.22,.5,.5V5.5c0,.28-.22,.5-.5,.5Z"/><path d="M7.5,15c-.28,0-.5-.22-.5-.5v-4c0-.28,.22-.5,.5-.5s.5,.22,.5,.5v4c0,.28-.22,.5-.5,.5Z"/><path d="M7.5,11c-.28,0-.5-.22-.5-.5V4.5c0-.28,.22-.5,.5-.5s.5,.22,.5,.5v6c0,.28-.22,.5-.5,.5Z"/><circle cx="7.5" cy="5.5" r="1"/><circle cx="7.5" cy="10.5" r="1"/></svg>